# MagicaVoxel @ Ephtracy

# group
o 

# material
mtllib Player.mtl
usemtl palette

# normals
vn -1 0 0
vn 1 0 0
vn 0 0 1
vn 0 0 -1
vn 0 -1 0
vn 0 1 0

# texcoords
vt 0.0175781 0.5
vt 0.326172 0.5
vt 0.841797 0.5
vt 0.853516 0.5
vt 0.857422 0.5
vt 0.861328 0.5
vt 0.958984 0.5
vt 0.994141 0.5

# verts
v -0.7 1.5 0.1
v -0.7 1.5 -0.4
v -0.7 1.6 0.1
v -0.7 1.6 -0.2
v -0.7 1.6 -0.4
v -0.7 1.6 -0.5
v -0.7 1.7 -0.2
v -0.7 1.7 -0.5
v -0.6 1.4 0.3
v -0.6 1.4 -0.4
v -0.6 1.5 0.1
v -0.6 1.5 -0.4
v -0.6 1.5 -0.6
v -0.6 1.6 0.1
v -0.6 1.6 -0.2
v -0.6 1.6 -0.4
v -0.6 1.6 -0.5
v -0.6 1.6 -0.6
v -0.6 1.6 -0.7
v -0.6 1.7 0.3
v -0.6 1.7 -0.2
v -0.6 1.7 -0.5
v -0.6 1.7 -0.6
v -0.6 1.7 -0.7
v -0.6 1.8 -0.2
v -0.6 1.8 -0.6
v -0.5 1.2 0
v -0.5 1.2 -0.2
v -0.5 1.3 0.1
v -0.5 1.3 0
v -0.5 1.3 -0.2
v -0.5 1.3 -0.3
v -0.5 1.4 0.4
v -0.5 1.4 0.3
v -0.5 1.4 0.1
v -0.5 1.4 -0.3
v -0.5 1.4 -0.4
v -0.5 1.4 -0.5
v -0.5 1.5 -0.4
v -0.5 1.5 -0.5
v -0.5 1.7 0.4
v -0.5 1.7 0.3
v -0.5 1.7 -0.2
v -0.5 1.8 -0.2
v -0.5 1.8 -0.4
v -0.5 2 0.3
v -0.5 2 -0.4
v -0.4 2 0.2
v -0.4 2 -0.2
v -0.4 2.1 0.2
v -0.4 2.1 -0.2
v -0.3 1.7 0.4
v -0.3 1.7 0.3
v -0.3 1.8 0.4
v -0.3 1.8 0.3
v -0.3 2 0.3
v -0.3 2 0.2
v -0.3 2 -0.2
v -0.3 2 -0.3
v -0.3 2.1 0.3
v -0.3 2.1 0.2
v -0.3 2.1 -0.2
v -0.3 2.1 -0.3
v -0.3 2.2 0.2
v -0.3 2.2 -0.2
v -0.1 1.2 0
v -0.1 1.2 -0.2
v -0.1 1.3 0.1
v -0.1 1.3 0
v -0.1 1.3 -0.2
v -0.1 1.3 -0.3
v -0.1 1.4 0.1
v -0.1 1.4 -0.3
v 5.96046e-08 1.6 -0.1
v 5.96046e-08 1.6 -0.2
v 5.96046e-08 1.7 0.2
v 5.96046e-08 1.7 -0.1
v 5.96046e-08 1.7 -0.2
v 5.96046e-08 1.7 -0.3
v 5.96046e-08 1.8 0.2
v 5.96046e-08 1.9 0.2
v 5.96046e-08 1.9 -0.3
v 0.1 1.5 0.3
v 0.1 1.5 -0.4
v 0.1 1.5 -0.5
v 0.1 1.5 -0.6
v 0.1 1.6 -0.1
v 0.1 1.6 -0.2
v 0.1 1.6 -0.6
v 0.1 1.6 -0.7
v 0.1 1.7 0.3
v 0.1 1.7 -0.1
v 0.1 1.7 -0.2
v 0.1 1.7 -0.4
v 0.1 1.7 -0.5
v 0.1 1.7 -0.6
v 0.1 1.7 -0.7
v 0.1 1.8 -0.4
v 0.1 1.8 -0.6
v -0.5 1.5 -0.5
v -0.5 1.5 -0.6
v -0.5 1.6 -0.6
v -0.5 1.6 -0.7
v -0.5 1.7 -0.4
v -0.5 1.7 -0.5
v -0.5 1.7 -0.6
v -0.5 1.7 -0.7
v -0.5 1.8 -0.4
v -0.5 1.8 -0.6
v -0.4 1.5 0.3
v -0.4 1.5 0.2
v -0.4 1.5 0.1
v -0.4 1.5 -0.1
v -0.4 1.5 -0.2
v -0.4 1.5 -0.4
v -0.4 1.6 0.2
v -0.4 1.6 0.1
v -0.4 1.6 -0.1
v -0.4 1.6 -0.2
v -0.4 1.7 0.3
v -0.4 1.7 0
v -0.4 1.7 -0.3
v -0.4 1.7 -0.4
v -0.4 1.8 0.1
v -0.4 1.8 0
v -0.4 1.9 0.1
v -0.4 1.9 -0.3
v -0.3 1.2 0
v -0.3 1.2 -0.2
v -0.3 1.3 0.1
v -0.3 1.3 0
v -0.3 1.3 -0.2
v -0.3 1.3 -0.3
v -0.3 1.4 0.1
v -0.3 1.4 -0.3
v -0.3 1.5 0.2
v -0.3 1.5 0.1
v -0.3 1.5 -0.1
v -0.3 1.5 -0.2
v -0.3 1.6 0.2
v -0.3 1.6 0.1
v -0.3 1.6 -0.1
v -0.3 1.6 -0.2
v -0.3 1.7 0.2
v -0.3 1.7 0
v -0.3 1.8 0.2
v -0.3 1.8 0.1
v -0.3 1.8 0
v -0.3 1.9 0.2
v -0.3 1.9 0.1
v -0.1 1.7 0.4
v -0.1 1.7 0.3
v -0.1 1.8 0.4
v -0.1 1.8 0.3
v -0.1 2 0.3
v -0.1 2 0.2
v -0.1 2 -0.2
v -0.1 2 -0.3
v -0.1 2.1 0.3
v -0.1 2.1 0.2
v -0.1 2.1 -0.2
v -0.1 2.1 -0.3
v -0.1 2.2 0.2
v -0.1 2.2 -0.2
v 5.96046e-08 2 0.2
v 5.96046e-08 2 -0.2
v 5.96046e-08 2.1 0.2
v 5.96046e-08 2.1 -0.2
v 0.1 1.2 0
v 0.1 1.2 -0.2
v 0.1 1.3 0.1
v 0.1 1.3 0
v 0.1 1.3 -0.2
v 0.1 1.3 -0.3
v 0.1 1.4 0.4
v 0.1 1.4 0.3
v 0.1 1.4 0.1
v 0.1 1.4 -0.3
v 0.1 1.4 -0.4
v 0.1 1.4 -0.5
v 0.1 1.5 -0.4
v 0.1 1.5 -0.5
v 0.1 1.7 0.4
v 0.1 1.7 0.3
v 0.1 1.7 -0.2
v 0.1 1.8 -0.2
v 0.1 1.8 -0.4
v 0.1 2 0.3
v 0.1 2 -0.4
v 0.2 1.4 0.3
v 0.2 1.4 -0.4
v 0.2 1.5 0.1
v 0.2 1.5 -0.4
v 0.2 1.5 -0.6
v 0.2 1.6 0.1
v 0.2 1.6 -0.2
v 0.2 1.6 -0.4
v 0.2 1.6 -0.5
v 0.2 1.6 -0.6
v 0.2 1.6 -0.7
v 0.2 1.7 0.3
v 0.2 1.7 -0.2
v 0.2 1.7 -0.5
v 0.2 1.7 -0.6
v 0.2 1.7 -0.7
v 0.2 1.8 -0.2
v 0.2 1.8 -0.6
v 0.3 1.5 0.1
v 0.3 1.5 -0.4
v 0.3 1.6 0.1
v 0.3 1.6 -0.2
v 0.3 1.6 -0.4
v 0.3 1.6 -0.5
v 0.3 1.7 -0.2
v 0.3 1.7 -0.5
v -0.5 1.4 0.4
v -0.5 1.7 0.4
v -0.3 1.7 0.4
v -0.3 1.8 0.4
v -0.1 1.7 0.4
v -0.1 1.8 0.4
v 0.1 1.4 0.4
v 0.1 1.7 0.4
v -0.6 1.4 0.3
v -0.6 1.7 0.3
v -0.5 1.4 0.3
v -0.5 1.7 0.3
v -0.5 2 0.3
v -0.4 1.8 0.3
v -0.4 1.9 0.3
v -0.3 1.7 0.3
v -0.3 1.8 0.3
v -0.3 1.9 0.3
v -0.3 2 0.3
v -0.3 2.1 0.3
v -0.1 1.7 0.3
v -0.1 1.8 0.3
v -0.1 1.9 0.3
v -0.1 2 0.3
v -0.1 2.1 0.3
v 5.96046e-08 1.8 0.3
v 5.96046e-08 1.9 0.3
v 0.1 1.4 0.3
v 0.1 1.7 0.3
v 0.1 2 0.3
v 0.2 1.4 0.3
v 0.2 1.7 0.3
v -0.4 1.5 0.2
v -0.4 1.6 0.2
v -0.4 2 0.2
v -0.4 2.1 0.2
v -0.3 1.5 0.2
v -0.3 1.6 0.2
v -0.3 2 0.2
v -0.3 2.1 0.2
v -0.3 2.2 0.2
v -0.1 2 0.2
v -0.1 2.1 0.2
v -0.1 2.2 0.2
v 5.96046e-08 2 0.2
v 5.96046e-08 2.1 0.2
v -0.7 1.5 0.1
v -0.7 1.6 0.1
v -0.6 1.5 0.1
v -0.6 1.6 0.1
v -0.5 1.3 0.1
v -0.5 1.4 0.1
v -0.3 1.3 0.1
v -0.3 1.4 0.1
v -0.1 1.3 0.1
v -0.1 1.4 0.1
v 0.1 1.3 0.1
v 0.1 1.4 0.1
v 0.2 1.5 0.1
v 0.2 1.6 0.1
v 0.3 1.5 0.1
v 0.3 1.6 0.1
v -0.5 1.2 0
v -0.5 1.3 0
v -0.3 1.2 0
v -0.3 1.3 0
v -0.1 1.2 0
v -0.1 1.3 0
v 0.1 1.2 0
v 0.1 1.3 0
v -0.4 1.5 -0.1
v -0.4 1.6 -0.1
v -0.3 1.5 -0.1
v -0.3 1.6 -0.1
v 5.96046e-08 1.6 -0.1
v 5.96046e-08 1.7 -0.1
v 0.1 1.6 -0.1
v 0.1 1.7 -0.1
v -0.7 1.6 -0.2
v -0.7 1.7 -0.2
v -0.6 1.6 -0.2
v -0.6 1.7 -0.2
v -0.6 1.8 -0.2
v -0.5 1.7 -0.2
v -0.5 1.8 -0.2
v 0.1 1.7 -0.2
v 0.1 1.8 -0.2
v 0.2 1.6 -0.2
v 0.2 1.7 -0.2
v 0.2 1.8 -0.2
v 0.3 1.6 -0.2
v 0.3 1.7 -0.2
v -0.4 1.7 -0.3
v -0.4 1.9 -0.3
v 5.96046e-08 1.7 -0.3
v 5.96046e-08 1.9 -0.3
v -0.4 1.5 -0.4
v -0.4 1.7 -0.4
v 0.1 1.5 -0.4
v 0.1 1.7 -0.4
v -0.4 1.5 0.3
v -0.4 1.7 0.3
v -0.3 1.7 0.3
v -0.2 1.7 0.3
v -0.1 1.7 0.3
v 0.1 1.5 0.3
v 0.1 1.7 0.3
v -0.3 1.7 0.2
v -0.3 1.8 0.2
v -0.3 1.9 0.2
v -0.2 1.7 0.2
v -0.2 1.8 0.2
v -0.1 1.7 0.2
v -0.1 1.8 0.2
v -0.1 1.9 0.2
v 5.96046e-08 1.7 0.2
v 5.96046e-08 1.8 0.2
v 5.96046e-08 1.9 0.2
v -0.4 1.5 0.1
v -0.4 1.6 0.1
v -0.4 1.8 0.1
v -0.4 1.9 0.1
v -0.3 1.5 0.1
v -0.3 1.6 0.1
v -0.3 1.8 0.1
v -0.3 1.9 0.1
v -0.4 1.7 0
v -0.4 1.8 0
v -0.3 1.7 0
v -0.3 1.8 0
v -0.5 1.2 -0.2
v -0.5 1.3 -0.2
v -0.4 1.5 -0.2
v -0.4 1.6 -0.2
v -0.4 2 -0.2
v -0.4 2.1 -0.2
v -0.3 1.2 -0.2
v -0.3 1.3 -0.2
v -0.3 1.5 -0.2
v -0.3 1.6 -0.2
v -0.3 2 -0.2
v -0.3 2.1 -0.2
v -0.3 2.2 -0.2
v -0.1 1.2 -0.2
v -0.1 1.3 -0.2
v -0.1 2 -0.2
v -0.1 2.1 -0.2
v -0.1 2.2 -0.2
v 5.96046e-08 1.6 -0.2
v 5.96046e-08 1.7 -0.2
v 5.96046e-08 2 -0.2
v 5.96046e-08 2.1 -0.2
v 0.1 1.2 -0.2
v 0.1 1.3 -0.2
v 0.1 1.6 -0.2
v 0.1 1.7 -0.2
v -0.5 1.3 -0.3
v -0.5 1.4 -0.3
v -0.3 1.3 -0.3
v -0.3 1.4 -0.3
v -0.3 2 -0.3
v -0.3 2.1 -0.3
v -0.1 1.3 -0.3
v -0.1 1.4 -0.3
v -0.1 2 -0.3
v -0.1 2.1 -0.3
v 0.1 1.3 -0.3
v 0.1 1.4 -0.3
v -0.7 1.5 -0.4
v -0.7 1.6 -0.4
v -0.6 1.4 -0.4
v -0.6 1.5 -0.4
v -0.6 1.6 -0.4
v -0.5 1.4 -0.4
v -0.5 1.5 -0.4
v -0.5 1.7 -0.4
v -0.5 1.8 -0.4
v -0.5 2 -0.4
v 0.1 1.4 -0.4
v 0.1 1.5 -0.4
v 0.1 1.7 -0.4
v 0.1 1.8 -0.4
v 0.1 2 -0.4
v 0.2 1.4 -0.4
v 0.2 1.5 -0.4
v 0.2 1.6 -0.4
v 0.3 1.5 -0.4
v 0.3 1.6 -0.4
v -0.7 1.6 -0.5
v -0.7 1.7 -0.5
v -0.6 1.6 -0.5
v -0.6 1.7 -0.5
v -0.5 1.4 -0.5
v -0.5 1.5 -0.5
v -0.5 1.7 -0.5
v -0.3 1.4 -0.5
v -0.3 1.5 -0.5
v -0.1 1.4 -0.5
v -0.1 1.5 -0.5
v 0.1 1.4 -0.5
v 0.1 1.5 -0.5
v 0.1 1.7 -0.5
v 0.2 1.6 -0.5
v 0.2 1.7 -0.5
v 0.3 1.6 -0.5
v 0.3 1.7 -0.5
v -0.6 1.5 -0.6
v -0.6 1.6 -0.6
v -0.6 1.7 -0.6
v -0.6 1.8 -0.6
v -0.5 1.5 -0.6
v -0.5 1.6 -0.6
v -0.5 1.7 -0.6
v -0.5 1.8 -0.6
v 0.1 1.5 -0.6
v 0.1 1.6 -0.6
v 0.1 1.7 -0.6
v 0.1 1.8 -0.6
v 0.2 1.5 -0.6
v 0.2 1.6 -0.6
v 0.2 1.7 -0.6
v 0.2 1.8 -0.6
v -0.6 1.6 -0.7
v -0.6 1.7 -0.7
v -0.5 1.6 -0.7
v -0.5 1.7 -0.7
v 0.1 1.6 -0.7
v 0.1 1.7 -0.7
v 0.2 1.6 -0.7
v 0.2 1.7 -0.7
v -0.5 1.2 0
v -0.3 1.2 0
v -0.1 1.2 0
v 0.1 1.2 0
v -0.5 1.2 -0.2
v -0.3 1.2 -0.2
v -0.1 1.2 -0.2
v 0.1 1.2 -0.2
v -0.5 1.3 0.1
v -0.3 1.3 0.1
v -0.1 1.3 0.1
v 0.1 1.3 0.1
v -0.5 1.3 0
v -0.3 1.3 0
v -0.1 1.3 0
v 0.1 1.3 0
v -0.5 1.3 -0.2
v -0.3 1.3 -0.2
v -0.1 1.3 -0.2
v 0.1 1.3 -0.2
v -0.5 1.3 -0.3
v -0.3 1.3 -0.3
v -0.1 1.3 -0.3
v 0.1 1.3 -0.3
v -0.5 1.4 0.4
v 0.1 1.4 0.4
v -0.6 1.4 0.3
v -0.5 1.4 0.3
v 0.1 1.4 0.3
v 0.2 1.4 0.3
v -0.5 1.4 0.1
v -0.3 1.4 0.1
v -0.1 1.4 0.1
v 0.1 1.4 0.1
v -0.5 1.4 -0.3
v -0.3 1.4 -0.3
v -0.1 1.4 -0.3
v 0.1 1.4 -0.3
v -0.6 1.4 -0.4
v -0.5 1.4 -0.4
v -0.3 1.4 -0.4
v -0.1 1.4 -0.4
v 0.1 1.4 -0.4
v 0.2 1.4 -0.4
v -0.5 1.4 -0.5
v -0.3 1.4 -0.5
v -0.1 1.4 -0.5
v 0.1 1.4 -0.5
v -0.7 1.5 0.1
v -0.6 1.5 0.1
v 0.2 1.5 0.1
v 0.3 1.5 0.1
v -0.7 1.5 -0.4
v -0.6 1.5 -0.4
v -0.5 1.5 -0.4
v 0.1 1.5 -0.4
v 0.2 1.5 -0.4
v 0.3 1.5 -0.4
v -0.5 1.5 -0.5
v 0.1 1.5 -0.5
v -0.6 1.5 -0.6
v -0.5 1.5 -0.6
v 0.1 1.5 -0.6
v 0.2 1.5 -0.6
v 5.96046e-08 1.6 -0.1
v 0.1 1.6 -0.1
v 5.96046e-08 1.6 -0.2
v 0.1 1.6 -0.2
v -0.7 1.6 -0.4
v -0.6 1.6 -0.4
v 0.2 1.6 -0.4
v 0.3 1.6 -0.4
v -0.7 1.6 -0.5
v -0.6 1.6 -0.5
v 0.2 1.6 -0.5
v 0.3 1.6 -0.5
v -0.6 1.6 -0.6
v -0.5 1.6 -0.6
v 0.1 1.6 -0.6
v 0.2 1.6 -0.6
v -0.6 1.6 -0.7
v -0.5 1.6 -0.7
v 0.1 1.6 -0.7
v 0.2 1.6 -0.7
v -0.4 1.7 0.3
v -0.3 1.7 0.3
v -0.2 1.7 0.3
v -0.1 1.7 0.3
v 0.1 1.7 0.3
v -0.3 1.7 0.2
v -0.2 1.7 0.2
v -0.1 1.7 0.2
v 5.96046e-08 1.7 0.2
v -0.4 1.7 0
v -0.3 1.7 0
v 5.96046e-08 1.7 -0.1
v 0.1 1.7 -0.1
v 5.96046e-08 1.7 -0.2
v 0.1 1.7 -0.2
v -0.4 1.7 -0.3
v 5.96046e-08 1.7 -0.3
v -0.4 1.7 -0.4
v 0.1 1.7 -0.4
v -0.3 1.9 0.2
v -0.1 1.9 0.2
v 5.96046e-08 1.9 0.2
v -0.4 1.9 0.1
v -0.3 1.9 0.1
v -0.4 1.9 -0.3
v 5.96046e-08 1.9 -0.3
v -0.4 1.5 0.3
v 0.1 1.5 0.3
v -0.4 1.5 0.2
v -0.3 1.5 0.2
v -0.4 1.5 0.1
v -0.3 1.5 0.1
v -0.4 1.5 -0.1
v -0.3 1.5 -0.1
v -0.4 1.5 -0.2
v -0.3 1.5 -0.2
v -0.4 1.5 -0.4
v 0.1 1.5 -0.4
v -0.4 1.6 0.2
v -0.3 1.6 0.2
v -0.7 1.6 0.1
v -0.6 1.6 0.1
v -0.4 1.6 0.1
v -0.3 1.6 0.1
v 0.2 1.6 0.1
v 0.3 1.6 0.1
v -0.4 1.6 -0.1
v -0.3 1.6 -0.1
v -0.7 1.6 -0.2
v -0.6 1.6 -0.2
v -0.4 1.6 -0.2
v -0.3 1.6 -0.2
v 0.2 1.6 -0.2
v 0.3 1.6 -0.2
v -0.5 1.7 0.4
v -0.3 1.7 0.4
v -0.1 1.7 0.4
v 0.1 1.7 0.4
v -0.6 1.7 0.3
v -0.5 1.7 0.3
v -0.3 1.7 0.3
v -0.1 1.7 0.3
v 0.1 1.7 0.3
v 0.2 1.7 0.3
v -0.7 1.7 -0.2
v -0.6 1.7 -0.2
v -0.5 1.7 -0.2
v 0.1 1.7 -0.2
v 0.2 1.7 -0.2
v 0.3 1.7 -0.2
v -0.5 1.7 -0.4
v 0.1 1.7 -0.4
v -0.7 1.7 -0.5
v -0.6 1.7 -0.5
v -0.5 1.7 -0.5
v 0.1 1.7 -0.5
v 0.2 1.7 -0.5
v 0.3 1.7 -0.5
v -0.6 1.7 -0.6
v -0.5 1.7 -0.6
v 0.1 1.7 -0.6
v 0.2 1.7 -0.6
v -0.6 1.7 -0.7
v -0.5 1.7 -0.7
v 0.1 1.7 -0.7
v 0.2 1.7 -0.7
v -0.3 1.8 0.4
v -0.1 1.8 0.4
v -0.3 1.8 0.3
v -0.1 1.8 0.3
v -0.4 1.8 0.1
v -0.3 1.8 0.1
v -0.4 1.8 0
v -0.3 1.8 0
v -0.6 1.8 -0.2
v -0.5 1.8 -0.2
v 0.1 1.8 -0.2
v 0.2 1.8 -0.2
v -0.5 1.8 -0.4
v 0.1 1.8 -0.4
v -0.6 1.8 -0.6
v -0.5 1.8 -0.6
v 0.1 1.8 -0.6
v 0.2 1.8 -0.6
v -0.5 2 0.3
v -0.3 2 0.3
v -0.1 2 0.3
v 0.1 2 0.3
v -0.4 2 0.2
v -0.3 2 0.2
v -0.1 2 0.2
v 5.96046e-08 2 0.2
v -0.4 2 -0.2
v -0.3 2 -0.2
v -0.1 2 -0.2
v 5.96046e-08 2 -0.2
v -0.3 2 -0.3
v -0.1 2 -0.3
v -0.5 2 -0.4
v 0.1 2 -0.4
v -0.3 2.1 0.3
v -0.1 2.1 0.3
v -0.4 2.1 0.2
v -0.3 2.1 0.2
v -0.1 2.1 0.2
v 5.96046e-08 2.1 0.2
v -0.4 2.1 -0.2
v -0.3 2.1 -0.2
v -0.1 2.1 -0.2
v 5.96046e-08 2.1 -0.2
v -0.3 2.1 -0.3
v -0.1 2.1 -0.3
v -0.3 2.2 0.2
v -0.1 2.2 0.2
v -0.3 2.2 -0.2
v -0.1 2.2 -0.2

# faces
f 3/7/1 2/7/1 1/7/1
f 4/7/1 2/7/1 3/7/1
f 5/7/1 2/7/1 4/7/1
f 7/7/1 6/7/1 5/7/1
f 7/7/1 5/7/1 4/7/1
f 8/7/1 6/7/1 7/7/1
f 11/7/1 10/7/1 9/7/1
f 12/7/1 10/7/1 11/7/1
f 14/7/1 11/7/1 9/7/1
f 16/7/1 13/7/1 12/7/1
f 17/7/1 13/7/1 16/7/1
f 18/7/1 13/7/1 17/7/1
f 20/7/1 15/7/1 14/7/1
f 20/7/1 14/7/1 9/7/1
f 21/7/1 15/7/1 20/7/1
f 22/7/1 19/7/1 18/7/1
f 22/7/1 18/7/1 17/7/1
f 23/7/1 19/7/1 22/7/1
f 24/7/1 19/7/1 23/7/1
f 25/7/1 22/7/1 21/7/1
f 25/7/1 23/7/1 22/7/1
f 26/7/1 23/7/1 25/7/1
f 30/1/1 28/1/1 27/1/1
f 31/1/1 28/1/1 30/1/1
f 35/1/1 30/1/1 29/1/1
f 35/1/1 31/1/1 30/1/1
f 35/1/1 32/1/1 31/1/1
f 36/1/1 32/1/1 35/1/1
f 39/7/1 38/7/1 37/7/1
f 40/7/1 38/7/1 39/7/1
f 41/7/1 34/7/1 33/7/1
f 42/7/1 34/7/1 41/7/1
f 44/7/1 43/7/1 42/7/1
f 46/7/1 44/7/1 42/7/1
f 46/7/1 45/7/1 44/7/1
f 47/7/1 45/7/1 46/7/1
f 50/3/1 49/3/1 48/3/1
f 51/3/1 49/3/1 50/3/1
f 54/2/1 53/2/1 52/2/1
f 55/2/1 53/2/1 54/2/1
f 60/3/1 57/3/1 56/3/1
f 61/3/1 57/3/1 60/3/1
f 62/3/1 59/3/1 58/3/1
f 63/3/1 59/3/1 62/3/1
f 64/3/1 62/3/1 61/3/1
f 65/3/1 62/3/1 64/3/1
f 69/1/1 67/1/1 66/1/1
f 70/1/1 67/1/1 69/1/1
f 72/1/1 69/1/1 68/1/1
f 72/1/1 71/1/1 70/1/1
f 72/1/1 70/1/1 69/1/1
f 73/1/1 71/1/1 72/1/1
f 77/5/1 75/5/1 74/5/1
f 78/5/1 75/5/1 77/5/1
f 80/7/1 77/7/1 76/7/1
f 80/7/1 79/7/1 78/7/1
f 80/7/1 78/7/1 77/7/1
f 81/7/1 79/7/1 80/7/1
f 82/7/1 79/7/1 81/7/1
f 87/7/1 84/7/1 83/7/1
f 88/7/1 84/7/1 87/7/1
f 89/7/1 86/7/1 85/7/1
f 91/7/1 87/7/1 83/7/1
f 92/7/1 87/7/1 91/7/1
f 93/7/1 84/7/1 88/7/1
f 94/7/1 84/7/1 93/7/1
f 95/7/1 90/7/1 89/7/1
f 95/7/1 89/7/1 85/7/1
f 96/7/1 90/7/1 95/7/1
f 97/7/1 90/7/1 96/7/1
f 98/7/1 96/7/1 95/7/1
f 98/7/1 95/7/1 94/7/1
f 99/7/1 96/7/1 98/7/1
f 100/7/2 101/7/2 102/7/2
f 100/7/2 102/7/2 105/7/2
f 102/7/2 103/7/2 105/7/2
f 105/7/2 103/7/2 106/7/2
f 106/7/2 103/7/2 107/7/2
f 104/7/2 105/7/2 108/7/2
f 105/7/2 106/7/2 108/7/2
f 108/7/2 106/7/2 109/7/2
f 110/7/2 111/7/2 116/7/2
f 112/7/2 113/7/2 117/7/2
f 117/7/2 113/7/2 118/7/2
f 114/7/2 115/7/2 119/7/2
f 117/7/2 118/7/2 120/7/2
f 118/7/2 119/7/2 120/7/2
f 110/7/2 116/7/2 120/7/2
f 116/7/2 117/7/2 120/7/2
f 120/7/2 119/7/2 121/7/2
f 119/7/2 115/7/2 122/7/2
f 121/7/2 119/7/2 122/7/2
f 122/7/2 115/7/2 123/7/2
f 121/7/2 122/7/2 125/7/2
f 124/7/2 125/7/2 126/7/2
f 125/7/2 122/7/2 127/7/2
f 126/7/2 125/7/2 127/7/2
f 128/1/2 129/1/2 131/1/2
f 131/1/2 129/1/2 132/1/2
f 130/1/2 131/1/2 134/1/2
f 132/1/2 133/1/2 134/1/2
f 131/1/2 132/1/2 134/1/2
f 134/1/2 133/1/2 135/1/2
f 136/7/2 137/7/2 140/7/2
f 140/7/2 137/7/2 141/7/2
f 138/7/2 139/7/2 142/7/2
f 142/7/2 139/7/2 143/7/2
f 144/7/2 145/7/2 146/7/2
f 146/7/2 145/7/2 147/7/2
f 147/7/2 145/7/2 148/7/2
f 146/8/2 147/8/2 149/8/2
f 149/8/2 147/8/2 150/8/2
f 151/2/2 152/2/2 153/2/2
f 153/2/2 152/2/2 154/2/2
f 155/3/2 156/3/2 159/3/2
f 159/3/2 156/3/2 160/3/2
f 157/3/2 158/3/2 161/3/2
f 161/3/2 158/3/2 162/3/2
f 160/3/2 161/3/2 163/3/2
f 163/3/2 161/3/2 164/3/2
f 165/3/2 166/3/2 167/3/2
f 167/3/2 166/3/2 168/3/2
f 169/1/2 170/1/2 172/1/2
f 172/1/2 170/1/2 173/1/2
f 171/1/2 172/1/2 177/1/2
f 172/1/2 173/1/2 177/1/2
f 173/1/2 174/1/2 177/1/2
f 177/1/2 174/1/2 178/1/2
f 179/7/2 180/7/2 181/7/2
f 181/7/2 180/7/2 182/7/2
f 175/7/2 176/7/2 183/7/2
f 183/7/2 176/7/2 184/7/2
f 184/7/2 185/7/2 186/7/2
f 184/7/2 186/7/2 188/7/2
f 186/7/2 187/7/2 188/7/2
f 188/7/2 187/7/2 189/7/2
f 190/7/2 191/7/2 192/7/2
f 192/7/2 191/7/2 193/7/2
f 190/7/2 192/7/2 195/7/2
f 193/7/2 194/7/2 197/7/2
f 197/7/2 194/7/2 198/7/2
f 198/7/2 194/7/2 199/7/2
f 195/7/2 196/7/2 201/7/2
f 190/7/2 195/7/2 201/7/2
f 201/7/2 196/7/2 202/7/2
f 199/7/2 200/7/2 203/7/2
f 198/7/2 199/7/2 203/7/2
f 203/7/2 200/7/2 204/7/2
f 204/7/2 200/7/2 205/7/2
f 202/7/2 203/7/2 206/7/2
f 203/7/2 204/7/2 206/7/2
f 206/7/2 204/7/2 207/7/2
f 208/7/2 209/7/2 210/7/2
f 210/7/2 209/7/2 211/7/2
f 211/7/2 209/7/2 212/7/2
f 212/7/2 213/7/2 214/7/2
f 211/7/2 212/7/2 214/7/2
f 214/7/2 213/7/2 215/7/2
f 218/7/3 217/7/3 216/7/3
f 220/7/3 218/7/3 216/7/3
f 220/2/3 219/2/3 218/2/3
f 221/2/3 219/2/3 220/2/3
f 222/7/3 220/7/3 216/7/3
f 223/7/3 220/7/3 222/7/3
f 226/7/3 225/7/3 224/7/3
f 227/7/3 225/7/3 226/7/3
f 229/7/3 228/7/3 227/7/3
f 230/7/3 228/7/3 229/7/3
f 231/7/3 229/7/3 227/7/3
f 232/8/3 230/8/3 229/8/3
f 232/7/3 229/7/3 231/7/3
f 233/7/3 228/7/3 230/7/3
f 233/8/3 230/8/3 232/8/3
f 234/7/3 228/7/3 233/7/3
f 237/7/3 233/7/3 232/7/3
f 237/7/3 234/7/3 233/7/3
f 238/7/3 234/7/3 237/7/3
f 239/3/3 235/3/3 234/3/3
f 239/7/3 234/7/3 238/7/3
f 240/3/3 235/3/3 239/3/3
f 241/8/3 238/8/3 237/8/3
f 241/7/3 237/7/3 236/7/3
f 242/7/3 239/7/3 238/7/3
f 242/8/3 238/8/3 241/8/3
f 244/7/3 241/7/3 236/7/3
f 244/7/3 242/7/3 241/7/3
f 245/7/3 239/7/3 242/7/3
f 245/7/3 242/7/3 244/7/3
f 246/7/3 244/7/3 243/7/3
f 247/7/3 244/7/3 246/7/3
f 252/7/3 249/7/3 248/7/3
f 253/7/3 249/7/3 252/7/3
f 254/3/3 251/3/3 250/3/3
f 255/3/3 251/3/3 254/3/3
f 258/3/3 256/3/3 255/3/3
f 259/3/3 256/3/3 258/3/3
f 260/3/3 258/3/3 257/3/3
f 261/3/3 258/3/3 260/3/3
f 264/7/3 263/7/3 262/7/3
f 265/7/3 263/7/3 264/7/3
f 268/1/3 267/1/3 266/1/3
f 269/1/3 267/1/3 268/1/3
f 272/1/3 271/1/3 270/1/3
f 273/1/3 271/1/3 272/1/3
f 276/7/3 275/7/3 274/7/3
f 277/7/3 275/7/3 276/7/3
f 280/1/3 279/1/3 278/1/3
f 281/1/3 279/1/3 280/1/3
f 284/1/3 283/1/3 282/1/3
f 285/1/3 283/1/3 284/1/3
f 288/7/3 287/7/3 286/7/3
f 289/7/3 287/7/3 288/7/3
f 292/5/3 291/5/3 290/5/3
f 293/5/3 291/5/3 292/5/3
f 296/7/3 295/7/3 294/7/3
f 297/7/3 295/7/3 296/7/3
f 299/7/3 298/7/3 297/7/3
f 300/7/3 298/7/3 299/7/3
f 304/7/3 302/7/3 301/7/3
f 305/7/3 302/7/3 304/7/3
f 306/7/3 304/7/3 303/7/3
f 307/7/3 304/7/3 306/7/3
f 310/7/3 309/7/3 308/7/3
f 311/7/3 309/7/3 310/7/3
f 314/7/3 313/7/3 312/7/3
f 315/7/3 313/7/3 314/7/3
f 316/7/4 317/7/4 318/7/4
f 316/7/4 318/7/4 319/7/4
f 316/7/4 319/7/4 320/7/4
f 316/7/4 320/7/4 321/7/4
f 321/7/4 320/7/4 322/7/4
f 323/4/4 324/4/4 326/4/4
f 324/7/4 325/7/4 327/7/4
f 326/4/4 324/4/4 327/4/4
f 326/5/4 327/5/4 328/5/4
f 327/7/4 325/7/4 329/7/4
f 328/5/4 327/5/4 329/5/4
f 329/7/4 325/7/4 330/7/4
f 328/7/4 329/7/4 331/7/4
f 329/8/4 330/8/4 332/8/4
f 331/7/4 329/7/4 332/7/4
f 332/8/4 330/8/4 333/8/4
f 334/7/4 335/7/4 338/7/4
f 338/7/4 335/7/4 339/7/4
f 336/8/4 337/8/4 340/8/4
f 340/8/4 337/8/4 341/8/4
f 342/7/4 343/7/4 344/7/4
f 344/7/4 343/7/4 345/7/4
f 346/1/4 347/1/4 352/1/4
f 352/1/4 347/1/4 353/1/4
f 348/7/4 349/7/4 354/7/4
f 354/7/4 349/7/4 355/7/4
f 350/3/4 351/3/4 356/3/4
f 356/3/4 351/3/4 357/3/4
f 357/3/4 358/3/4 362/3/4
f 362/3/4 358/3/4 363/3/4
f 361/3/4 362/3/4 366/3/4
f 366/3/4 362/3/4 367/3/4
f 359/1/4 360/1/4 368/1/4
f 368/1/4 360/1/4 369/1/4
f 364/5/4 365/5/4 370/5/4
f 370/5/4 365/5/4 371/5/4
f 372/1/4 373/1/4 374/1/4
f 374/1/4 373/1/4 375/1/4
f 376/3/4 377/3/4 380/3/4
f 380/3/4 377/3/4 381/3/4
f 378/1/4 379/1/4 382/1/4
f 382/1/4 379/1/4 383/1/4
f 384/7/4 385/7/4 387/7/4
f 387/7/4 385/7/4 388/7/4
f 386/7/4 387/7/4 389/7/4
f 389/7/4 387/7/4 390/7/4
f 392/7/4 393/7/4 396/7/4
f 391/7/4 392/7/4 396/7/4
f 396/7/4 393/7/4 397/7/4
f 397/7/4 393/7/4 398/7/4
f 394/7/4 395/7/4 399/7/4
f 399/7/4 395/7/4 400/7/4
f 400/7/4 401/7/4 402/7/4
f 402/7/4 401/7/4 403/7/4
f 404/7/4 405/7/4 406/7/4
f 406/7/4 405/7/4 407/7/4
f 408/7/4 409/7/4 411/7/4
f 409/7/4 410/7/4 411/7/4
f 411/7/4 410/7/4 412/7/4
f 411/6/4 412/6/4 413/6/4
f 412/7/4 410/7/4 414/7/4
f 413/6/4 412/6/4 414/6/4
f 413/7/4 414/7/4 415/7/4
f 414/7/4 410/7/4 416/7/4
f 415/7/4 414/7/4 416/7/4
f 416/7/4 410/7/4 417/7/4
f 418/7/4 419/7/4 420/7/4
f 420/7/4 419/7/4 421/7/4
f 422/7/4 423/7/4 426/7/4
f 426/7/4 423/7/4 427/7/4
f 424/7/4 425/7/4 428/7/4
f 428/7/4 425/7/4 429/7/4
f 430/7/4 431/7/4 434/7/4
f 434/7/4 431/7/4 435/7/4
f 432/7/4 433/7/4 436/7/4
f 436/7/4 433/7/4 437/7/4
f 438/7/4 439/7/4 440/7/4
f 440/7/4 439/7/4 441/7/4
f 442/7/4 443/7/4 444/7/4
f 444/7/4 443/7/4 445/7/4
f 450/1/5 447/1/5 446/1/5
f 451/1/5 447/1/5 450/1/5
f 452/1/5 449/1/5 448/1/5
f 453/1/5 449/1/5 452/1/5
f 458/1/5 455/1/5 454/1/5
f 459/1/5 455/1/5 458/1/5
f 460/1/5 457/1/5 456/1/5
f 461/1/5 457/1/5 460/1/5
f 466/1/5 463/1/5 462/1/5
f 467/1/5 463/1/5 466/1/5
f 468/1/5 465/1/5 464/1/5
f 469/1/5 465/1/5 468/1/5
f 473/7/5 471/7/5 470/7/5
f 474/7/5 471/7/5 473/7/5
f 476/7/5 473/7/5 472/7/5
f 476/7/5 475/7/5 474/7/5
f 476/7/5 474/7/5 473/7/5
f 477/7/5 475/7/5 476/7/5
f 478/7/5 475/7/5 477/7/5
f 479/7/5 475/7/5 478/7/5
f 480/7/5 476/7/5 472/7/5
f 481/7/5 478/7/5 477/7/5
f 482/7/5 478/7/5 481/7/5
f 483/7/5 475/7/5 479/7/5
f 484/7/5 482/7/5 481/7/5
f 484/7/5 483/7/5 482/7/5
f 484/7/5 480/7/5 472/7/5
f 484/7/5 481/7/5 480/7/5
f 485/7/5 483/7/5 484/7/5
f 486/7/5 483/7/5 485/7/5
f 487/7/5 483/7/5 486/7/5
f 488/7/5 475/7/5 483/7/5
f 488/7/5 483/7/5 487/7/5
f 489/7/5 475/7/5 488/7/5
f 490/7/5 486/7/5 485/7/5
f 491/6/5 487/6/5 486/6/5
f 491/7/5 486/7/5 490/7/5
f 492/7/5 488/7/5 487/7/5
f 492/6/5 487/6/5 491/6/5
f 493/7/5 488/7/5 492/7/5
f 498/7/5 495/7/5 494/7/5
f 499/7/5 495/7/5 498/7/5
f 502/7/5 497/7/5 496/7/5
f 503/7/5 497/7/5 502/7/5
f 504/7/5 500/7/5 499/7/5
f 505/7/5 502/7/5 501/7/5
f 506/7/5 504/7/5 499/7/5
f 507/7/5 504/7/5 506/7/5
f 508/7/5 502/7/5 505/7/5
f 509/7/5 502/7/5 508/7/5
f 512/5/5 511/5/5 510/5/5
f 513/5/5 511/5/5 512/5/5
f 518/7/5 515/7/5 514/7/5
f 519/7/5 515/7/5 518/7/5
f 520/7/5 517/7/5 516/7/5
f 521/7/5 517/7/5 520/7/5
f 526/7/5 523/7/5 522/7/5
f 527/7/5 523/7/5 526/7/5
f 528/7/5 525/7/5 524/7/5
f 529/7/5 525/7/5 528/7/5
f 535/7/5 531/7/5 530/7/5
f 535/4/5 532/4/5 531/4/5
f 536/5/5 533/5/5 532/5/5
f 536/4/5 532/4/5 535/4/5
f 537/7/5 534/7/5 533/7/5
f 537/5/5 533/5/5 536/5/5
f 538/7/5 534/7/5 537/7/5
f 539/7/5 535/7/5 530/7/5
f 540/7/5 535/7/5 539/7/5
f 541/7/5 534/7/5 538/7/5
f 542/7/5 534/7/5 541/7/5
f 546/7/5 544/7/5 543/7/5
f 547/7/5 546/7/5 545/7/5
f 548/7/5 544/7/5 546/7/5
f 548/7/5 546/7/5 547/7/5
f 553/7/5 550/7/5 549/7/5
f 553/7/5 551/7/5 550/7/5
f 554/7/5 553/7/5 552/7/5
f 555/7/5 551/7/5 553/7/5
f 555/7/5 553/7/5 554/7/5
f 556/7/6 557/7/6 558/7/6
f 558/7/6 557/7/6 559/7/6
f 559/7/6 557/7/6 561/7/6
f 560/7/6 561/7/6 562/7/6
f 561/7/6 557/7/6 563/7/6
f 562/7/6 561/7/6 563/7/6
f 563/7/6 557/7/6 565/7/6
f 564/7/6 565/7/6 566/7/6
f 565/7/6 557/7/6 567/7/6
f 566/7/6 565/7/6 567/7/6
f 568/7/6 569/7/6 572/7/6
f 572/7/6 569/7/6 573/7/6
f 570/7/6 571/7/6 578/7/6
f 578/7/6 571/7/6 579/7/6
f 576/7/6 577/7/6 580/7/6
f 580/7/6 577/7/6 581/7/6
f 574/7/6 575/7/6 582/7/6
f 582/7/6 575/7/6 583/7/6
f 584/7/6 585/7/6 589/7/6
f 589/7/6 585/7/6 590/7/6
f 586/7/6 587/7/6 591/7/6
f 591/7/6 587/7/6 592/7/6
f 588/7/6 589/7/6 595/7/6
f 595/7/6 589/7/6 596/7/6
f 592/7/6 593/7/6 597/7/6
f 597/7/6 593/7/6 598/7/6
f 594/7/6 595/7/6 602/7/6
f 602/7/6 595/7/6 603/7/6
f 600/7/6 601/7/6 604/7/6
f 604/7/6 601/7/6 605/7/6
f 598/7/6 599/7/6 606/7/6
f 606/7/6 599/7/6 607/7/6
f 608/7/6 609/7/6 612/7/6
f 612/7/6 609/7/6 613/7/6
f 610/7/6 611/7/6 614/7/6
f 614/7/6 611/7/6 615/7/6
f 616/2/6 617/2/6 618/2/6
f 618/2/6 617/2/6 619/2/6
f 620/7/6 621/7/6 622/7/6
f 622/7/6 621/7/6 623/7/6
f 624/7/6 625/7/6 628/7/6
f 626/7/6 627/7/6 629/7/6
f 624/7/6 628/7/6 630/7/6
f 630/7/6 628/7/6 631/7/6
f 629/7/6 627/7/6 632/7/6
f 632/7/6 627/7/6 633/7/6
f 634/7/6 635/7/6 638/7/6
f 638/7/6 635/7/6 639/7/6
f 636/7/6 637/7/6 640/7/6
f 640/7/6 637/7/6 641/7/6
f 634/7/6 638/7/6 642/7/6
f 641/7/6 637/7/6 645/7/6
f 642/7/6 643/7/6 646/7/6
f 644/7/6 645/7/6 647/7/6
f 642/7/6 646/7/6 648/7/6
f 646/7/6 647/7/6 648/7/6
f 634/7/6 642/7/6 648/7/6
f 647/7/6 645/7/6 649/7/6
f 648/7/6 647/7/6 649/7/6
f 645/7/6 637/7/6 649/7/6
f 650/3/6 651/3/6 653/3/6
f 653/3/6 651/3/6 654/3/6
f 652/3/6 653/3/6 656/3/6
f 656/3/6 653/3/6 657/3/6
f 654/3/6 655/3/6 658/3/6
f 658/3/6 655/3/6 659/3/6
f 657/3/6 658/3/6 660/3/6
f 660/3/6 658/3/6 661/3/6
f 662/3/6 663/3/6 664/3/6
f 664/3/6 663/3/6 665/3/6
