# MagicaVoxel @ Ephtracy

# group
o 

# material
mtllib Item.mtl
usemtl palette

# normals
vn -1 0 0
vn 1 0 0
vn 0 0 1
vn 0 0 -1
vn 0 -1 0
vn 0 1 0

# texcoords
vt 0.306641 0.5
vt 0.958984 0.5
vt 0.994141 0.5

# verts
v -0.5 1.5 0.5
v -0.5 1.5 -0.5
v -0.5 2.5 0.5
v -0.5 2.5 -0.5
v 0.5 1.5 0.5
v 0.5 1.5 -0.5
v 0.5 2.5 0.5
v 0.5 2.5 -0.5
v -0.5 1.5 0.5
v -0.5 2.5 0.5
v -0.4 1.6 0.5
v -0.4 2.2 0.5
v -0.3 1.6 0.5
v -0.3 1.9 0.5
v -0.3 2 0.5
v -0.3 2.2 0.5
v -0.3 2.4 0.5
v -0.2 2 0.5
v -0.2 2.1 0.5
v -0.2 2.2 0.5
v -0.2 2.3 0.5
v -0.1 1.9 0.5
v -0.1 2 0.5
v 0.1 2.1 0.5
v 0.1 2.3 0.5
v 0.2 2 0.5
v 0.2 2.1 0.5
v 0.2 2.3 0.5
v 0.2 2.4 0.5
v 0.3 2.1 0.5
v 0.3 2.3 0.5
v 0.5 1.5 0.5
v 0.5 2.5 0.5
v -0.5 1.5 -0.5
v -0.5 2.5 -0.5
v 0.5 1.5 -0.5
v 0.5 2.5 -0.5
v -0.5 1.5 0.5
v 0.5 1.5 0.5
v -0.5 1.5 -0.5
v 0.5 1.5 -0.5
v -0.5 2.5 0.5
v 0.5 2.5 0.5
v -0.5 2.5 -0.5
v 0.5 2.5 -0.5

# faces
f 3/2/1 2/2/1 1/2/1
f 4/2/1 2/2/1 3/2/1
f 5/2/2 6/2/2 7/2/2
f 7/2/2 6/2/2 8/2/2
f 11/2/3 10/2/3 9/2/3
f 12/2/3 10/2/3 11/2/3
f 13/2/3 11/2/3 9/2/3
f 13/3/3 12/3/3 11/3/3
f 14/3/3 12/3/3 13/3/3
f 15/3/3 12/3/3 14/3/3
f 16/2/3 10/2/3 12/2/3
f 16/3/3 12/3/3 15/3/3
f 17/2/3 10/2/3 16/2/3
f 18/3/3 15/3/3 14/3/3
f 18/2/3 16/2/3 15/2/3
f 19/2/3 16/2/3 18/2/3
f 20/3/3 17/3/3 16/3/3
f 20/2/3 16/2/3 19/2/3
f 21/3/3 17/3/3 20/3/3
f 22/2/3 14/2/3 13/2/3
f 22/3/3 19/3/3 18/3/3
f 22/3/3 18/3/3 14/3/3
f 23/3/3 19/3/3 22/3/3
f 24/2/3 21/2/3 20/2/3
f 24/3/3 19/3/3 23/3/3
f 24/2/3 20/2/3 19/2/3
f 25/3/3 17/3/3 21/3/3
f 25/2/3 21/2/3 24/2/3
f 26/3/3 24/3/3 23/3/3
f 26/2/3 23/2/3 22/2/3
f 26/3/3 25/3/3 24/3/3
f 27/3/3 25/3/3 26/3/3
f 28/3/3 17/3/3 25/3/3
f 28/3/3 25/3/3 27/3/3
f 29/2/3 10/2/3 17/2/3
f 29/3/3 17/3/3 28/3/3
f 30/3/3 28/3/3 27/3/3
f 30/2/3 27/2/3 26/2/3
f 31/2/3 29/2/3 28/2/3
f 31/3/3 28/3/3 30/3/3
f 32/2/3 13/2/3 9/2/3
f 32/2/3 30/2/3 26/2/3
f 32/2/3 31/2/3 30/2/3
f 32/2/3 26/2/3 22/2/3
f 32/2/3 22/2/3 13/2/3
f 33/2/3 10/2/3 29/2/3
f 33/2/3 31/2/3 32/2/3
f 33/2/3 29/2/3 31/2/3
f 34/2/4 35/2/4 36/2/4
f 36/2/4 35/2/4 37/2/4
f 40/2/5 39/2/5 38/2/5
f 41/2/5 39/2/5 40/2/5
f 42/2/6 43/2/6 44/2/6
f 44/2/6 43/2/6 45/2/6
